<svg xmlns="http://www.w3.org/2000/svg" viewBox="0 0 415.93 41.46"><defs><style>.cls-1{fill:#2b4a27;}</style></defs><title>工作區域 29</title><g id="圖層_2" data-name="圖層 2"><path class="cls-1" d="M12,7v4H0V7ZM11,23V35H5v2H1V23ZM1,16V12H11v4Zm0,5V18H11v3ZM11,1V5H2V1ZM8,27H5v4H8Zm22.76.11,2.17,2.13a21.1,21.1,0,0,1-3.71,2.06,12.4,12.4,0,0,0,4.48,2.06,8.92,8.92,0,0,0-2.17,3.07,13.19,13.19,0,0,1-7.06-5.09l.21,2.85-4.81.87q-4,.72-5.76,1l-1-3.29,1.42-.21L16,32.35V30.43c-1.17.49-2.21.87-3.15,1.16a19,19,0,0,0-1.92-2.75A28.83,28.83,0,0,0,16.56,27H12V24h5V23H14V20h3V19H13V16h4V14H13V7h9v7H21v2h4V14H23V7h9v7H29v2h4v3H28v1h4v3H28v1h5v3H25.76a10.15,10.15,0,0,0,1.47,2.35C27.65,29.11,28.83,28.36,30.76,27.11ZM33,3V6H12V3h8V1h4V3ZM17,12h2V10H17Zm3,16.64V32c.42-.08,1.17-.2,2.24-.36l2.45-.37a18.91,18.91,0,0,1-2-4.3h-.6A15.09,15.09,0,0,1,20,28.64ZM21,19v1h4V19Zm0,4v1h4V23Zm6-13v2h2V10Z"/><path class="cls-1" d="M75.56,17.17,79,18.76a34.51,34.51,0,0,1-5.44,7.72q1.44,4.35,2.88,4.35c.68,0,1.1-2,1.25-5.86a9,9,0,0,0,3.19,2.41q-.45,4.52-1.48,6.12a3.66,3.66,0,0,1-3.31,1.6c-2.24,0-4.11-1.86-5.63-5.58a34.07,34.07,0,0,1-6.07,4.31,15.34,15.34,0,0,0-2.59-3.38,32.79,32.79,0,0,0,7.32-5A65.71,65.71,0,0,1,67.44,16H59v4.46l2.55-.58c1.14-.25,2-.43,2.56-.53l.32,4.23L59,24.87v6.67a8.23,8.23,0,0,1-.41,3,2.91,2.91,0,0,1-1.41,1.58q-1.7,1-6,.88a19.11,19.11,0,0,0-1.4-4.69,36.38,36.38,0,0,0,4.39,0,.71.71,0,0,0,.81-.8V24.9c-.65.11-1.73.32-3.25.62l-3.35.65-1.09-4.24Q51,21.38,55,20.72V16H48V12h7V7.44q-2.09.39-5.33.87a19.51,19.51,0,0,0-1.14-4A63.33,63.33,0,0,0,61.76.92L64.43,5A55.44,55.44,0,0,1,59,6.58V12h6.37Q65.05,7.37,65,1h4.17c-.07,3.54,0,7.2.32,11H80v4H71.5q.38,3.24.93,6A31.58,31.58,0,0,0,75.56,17.17Zm4.15-9.42-3.49,2.63A21.3,21.3,0,0,0,74.05,7.2,30.72,30.72,0,0,0,71.1,4l3.25-2.4A29.73,29.73,0,0,1,79.71,7.75Z"/><path class="cls-1" d="M114,3V18h-6V37h-4V2.61a22.24,22.24,0,0,1-3,6.74V37H97V17.68a29.2,29.2,0,0,1-2.26,3.17,24.8,24.8,0,0,0-2.11-4.94Q97.25,10.32,99.9,1l4,1.25-.21.75Zm-3,3h-3V8h3Zm-3,8h3V12h-3ZM127,2V31.09a7.9,7.9,0,0,1-.43,3,2.84,2.84,0,0,1-1.48,1.53c-1.12.55-3.43.83-7,.83a15.23,15.23,0,0,0-1.29-4.49,46.72,46.72,0,0,0,5.23.08c.61,0,.92-.32.92-1V17h-7V2Zm-5,4h-3V8h3Zm-3,8h3V12h-3Z"/><path class="cls-1" d="M155,7v4H141V7Zm-2,16V35h-7v2h-4V23Zm0-11v4H142V12Zm-11,9V18h11v3ZM153,1V5H142V1Zm-3,26h-4v4h4Zm16-15h8v3H155V12h8V10h-7V7h7V6h-8V3h7V1h4V3h8V6h-8V7h7v3h-7Zm6,5V32.56a6.44,6.44,0,0,1-.33,2.33,2.38,2.38,0,0,1-1.21,1.23c-.85.43-2.58.64-5.2.64a13.16,13.16,0,0,0-1.08-3.67c1.61,0,2.7,0,3.26,0,.37,0,.56-.2.56-.61V30h-7v7h-4V17Zm-4,3h-7v2h7Zm-7,7h7V25h-7Z"/><path class="cls-1" d="M195.38.82l3.94,1.37a62,62,0,0,1-3.32,8V37h-4V17.08c-.8,1.19-1.57,2.25-2.32,3.16a23.24,23.24,0,0,0-1-2.42,24.92,24.92,0,0,0-1.26-2.41A35.31,35.31,0,0,0,192,8.83,44.51,44.51,0,0,0,195.38.82ZM216.53,12H212V30.55a8,8,0,0,1-.33,2.56,2.58,2.58,0,0,1-1.22,1.44,10.7,10.7,0,0,1-5,.85A13.72,13.72,0,0,0,204.07,31c.93,0,2,0,3.28,0a.65.65,0,0,0,.65-.65V12h-3.93a32,32,0,0,1-3.18,5.52,20.26,20.26,0,0,0-3.24-2.83q3.78-4.5,5.75-13l3.94.92q-.53,2.26-1.59,5.42h11.64l.63-.14,2.84.56c-.42,3.19-.9,6-1.46,8.43l-3.4-.64C216.22,14.75,216.4,13.35,216.53,12ZM202,17.81l4.2,1a40.37,40.37,0,0,1-4.91,13,19.71,19.71,0,0,0-3.7-2.52Q200.5,25.31,202,17.81Zm11.51,1,3.81-1.41a51.73,51.73,0,0,1,2.47,6.51,41.89,41.89,0,0,1,1.48,6.21l-4.13,1.52a39.63,39.63,0,0,0-1.3-6.21A53.66,53.66,0,0,0,213.49,18.84Z"/><path class="cls-1" d="M239.79,41.46l-1.2-3.17a7.33,7.33,0,0,0,3.21-2.21A5.06,5.06,0,0,0,243,33h-.21a3.44,3.44,0,0,1-1.84-.47,3.3,3.3,0,0,1-1.62-3,3.21,3.21,0,0,1,1-2.45,3.43,3.43,0,0,1,2.44-.94,3.24,3.24,0,0,1,2.84,1.51,7.35,7.35,0,0,1,1,4.13,10.08,10.08,0,0,1-1.79,6A10.22,10.22,0,0,1,239.79,41.46Z"/><path class="cls-1" d="M283.32,19h13.17q0,1.16,0,1.59-.24,7.45-.59,10.65a10.74,10.74,0,0,1-1,4.17,3.61,3.61,0,0,1-2.44,1.44,22.66,22.66,0,0,1-3.91.08,8.62,8.62,0,0,0-.42-2.15,5.34,5.34,0,0,1-1.71.22h-5.13c-1.72,0-2.86-.32-3.42-1s-.85-1.84-.85-3.62v-3.8c-1.26,1.05-2,1.67-2.34,1.87a16.25,16.25,0,0,0-1-1.5H269v3h-4V4h10V22.56A19.87,19.87,0,0,0,279.53,16H278V2h18V16H284.31C284,16.87,283.32,19,283.32,19ZM272,22V8h-3V22Zm10.37,9h3.52a.93.93,0,0,0,.92-.42,6.09,6.09,0,0,0,.28-1.93,7.28,7.28,0,0,0,3.24,1.44,8.37,8.37,0,0,1-.85,3.11,7.34,7.34,0,0,0,.88,0,1.29,1.29,0,0,0,1.09-.49c.52-.74.88-4.32,1.1-10.75H281l-.46,1H281v2.76a22.33,22.33,0,0,0,5.39-2.62l2.95,2.62A36.13,36.13,0,0,1,281,29v.83c0,.51.08.83.25,1A1.93,1.93,0,0,0,282.37,31ZM281,6V8h10V6Zm0,5v2h10V11Z"/><path class="cls-1" d="M336,13.83l1.44-1.39a39.56,39.56,0,0,1,7.37,8l-3.06,3.12a34.75,34.75,0,0,0-5.75-7V36h-4V18.53a33.21,33.21,0,0,1-6.94,6.59,26.73,26.73,0,0,0-2.72-3.69l0,.07-.14-.3,0,0A25.76,25.76,0,0,0,320,18.27V37h-4V21.9a34.11,34.11,0,0,1-3.92,8.44A23.47,23.47,0,0,0,310,26a26.84,26.84,0,0,0,3.18-5.82A43.57,43.57,0,0,0,315.53,13H311V8h5V0h4V8h4v5h-4v.58c1.38,1.41,2.73,2.92,4.07,4.54L322.33,21A27.33,27.33,0,0,0,332,8h-8V4h20V8h-6.42c-.35.93-.88,2.14-1.58,3.63Z"/><path class="cls-1" d="M386,26H376V37h-4V26h-9V22c-1.71.8-2.9,1.32-3.59,1.56a15.33,15.33,0,0,0-2.17-4.19,31.71,31.71,0,0,0,8.53-4.31A25.21,25.21,0,0,0,372,9h4.45a26,26,0,0,0,7,6.23A31.05,31.05,0,0,0,392,18.9a18.38,18.38,0,0,0-2.45,4.39A30.62,30.62,0,0,1,386,21.81ZM366,11V8h-7V4l7-1V1h4V3h9V0h4V4h7V8h-7v3h-4V8h-9v3Zm-.73,15.53,4.48,1.37a22.8,22.8,0,0,1-3.21,4.65,25,25,0,0,1-4.09,3.77,18,18,0,0,0-3.78-3.09,18,18,0,0,0,3.83-3A14.72,14.72,0,0,0,365.27,26.53ZM364.55,21H372V17h4v4h8.13q-6.83-3.69-10-8.24Q371.26,17.2,364.55,21Zm14.73,7.78,3.5-2.36a45.21,45.21,0,0,1,7.34,6.93l-3.74,2.7A44.79,44.79,0,0,0,379.28,28.78Z"/><path class="cls-1" d="M415,32.91a3.27,3.27,0,0,1-4.8,0,3.76,3.76,0,0,1-.95-2.65,3.82,3.82,0,0,1,.95-2.66,3.23,3.23,0,0,1,4.8,0,3.82,3.82,0,0,1,.95,2.66A3.76,3.76,0,0,1,415,32.91ZM410.84,24l-.78-14.57L409.92,4h5.35l-.14,5.43L414.35,24Z"/></g></svg>