<svg xmlns="http://www.w3.org/2000/svg" viewBox="0 0 40.07 14.29"><defs><style>.cls-1{fill:#df6427;}</style></defs><title>工作區域 4</title><g id="圖層_2" data-name="圖層 2"><path class="cls-1" d="M19,1.82A.61.61,0,0,0,19.34,3,1.4,1.4,0,0,0,19.67.43,2.55,2.55,0,0,0,17.14.26a2.83,2.83,0,0,0-1.28,3.27,3,3,0,0,0,3.8,2.13,2.39,2.39,0,0,1,1-.82,14.89,14.89,0,0,1-1.6.55c-2.41.08-3-1.76-2.86-2a2.51,2.51,0,0,0,3.47,1.67,2.41,2.41,0,0,1-2.73-.82A2.61,2.61,0,0,1,17,.89c-.16.11-.52.41-.79,1.47.15-.76.54-2,2.05-1.9s2.1,1.74,1,2.16c-.33,0-.57-.46-.31-.6.07,0,.21.14.29.11s.18-.26.08-.32A.22.22,0,0,0,19,1.82Z"/><path class="cls-1" d="M17.06,7.27s-1.2,1-2.23-.65c-.33-.63.54-1.12.84-1s.13.72.6.69.53-.85-.13-1.1a1.24,1.24,0,0,0-1.65,1.18,1.6,1.6,0,0,0,2.41,1.2A1.22,1.22,0,0,0,17.06,7.27Z"/><path class="cls-1" d="M12.48,8.34a2.57,2.57,0,0,1-1-3.13,3.12,3.12,0,0,0,.71,2.27,3.08,3.08,0,0,1-.52-2.62,2.24,2.24,0,0,1,.83-.76,1.17,1.17,0,0,1,1.77.62s-1.61.14-1.82,1.14a1.25,1.25,0,0,1,.56-1.46c-.76.07-1.1,1.45-.7,2.16s.86,2.55,4.42,1.23C17.19,7.64,14.36,9.86,12.48,8.34Z"/><path class="cls-1" d="M30.89,1.44c-.56,1.06.7,1.77,1.22,1.18.15-.2-.55-.14-.63-.44-.09.18,0,.47-.12.4s-.28-.48.29-.78,1.71,1.09,1.27,1.59-2,.35-2.81-.2a9.63,9.63,0,0,0-3.06-1.14A4.22,4.22,0,0,0,25.34.77C24.62.48,23.49.48,23.39.31s0,1.58,2.63,1.88c-2.77.21-4.19,1.62-5.92,3.15S16.41,9.05,12.89,9a3.87,3.87,0,0,1-4-4.65C9.25,2.7,11.13.53,13.15,1.41c1,.58.58,1.25.28,1.36a.67.67,0,0,0-1.17-.44c-.5.46.05,1.52,1.1,1.38s1.57-2.39,0-3.27S8.25.1,7.84,4.43s4.38,6.43,8.08,5a3.64,3.64,0,0,1,.63-.23s-.83.55-.6,1.34a2.64,2.64,0,0,0,1.87-1.64c.41-.69.58-.55.58-.55a2.33,2.33,0,0,0-.51.94c-.07.5,0,1.26.17,1.26a3,3,0,0,0,1.35-1.74,4.4,4.4,0,0,1,1.51-2.69A5.9,5.9,0,0,0,20,9.45c.14.55,1,1.52,1.13,1.35a16.54,16.54,0,0,0,.11-2.6c.07-1.22,1.69-5,5.15-5.15-2,.68-4.08,2.17-3.45,5.2a3.23,3.23,0,0,0,3.57,2.89A1.93,1.93,0,0,0,28,10.22a2.79,2.79,0,0,1-1.63.5,2.48,2.48,0,0,1-2.53-1.85v0a2.34,2.34,0,0,0,1.9,1.59,2.61,2.61,0,0,0,2.5-.73A1.93,1.93,0,0,0,28.15,8c-.5-.47-1.34-.81-1.53-.52,0,.25.51,1.55.37,1.88.65-.42.63-.26,1-.84-.09.59-.84,1.46-2.29,1s-2.8-4.66.42-5.65a2.52,2.52,0,0,1,3.25,1.46c.29.65-.06,1.12-.47,1.07-.3-.3-.26-.6-.48-.41a1.14,1.14,0,0,0-.26,1.25,1.46,1.46,0,0,0,2.16.08c.51-.72.08-3.41-2.37-3.91,1.28.08,3.93,1.95,3.71,4a5.89,5.89,0,0,0-.85,1.11A.79.79,0,0,0,31.9,8c-.39,1.24-1.07,1.84-2.25,1.67.65-.1.69-.19.71-.28s-.11-.61-.26-.63a1.09,1.09,0,0,0-1,1.13c0,.91,1.62,1.54,2.72.63a3.47,3.47,0,0,0,.7-3.72A2.13,2.13,0,0,1,33,8.23,2.87,2.87,0,0,0,35,9.79c.76-.71.2-2.81-.34-3.26-.72,0-.9-.1-1-.24.5,0,1.69.08,2.05-.69s.18-1.11-.3-1A4.77,4.77,0,0,1,31,4c.93.38,2.7.78,3-1.22S31.44.38,30.89,1.44ZM24.09.89c.72.37,2.16.92,2.16.92A5.56,5.56,0,0,1,24.09.89ZM18.34,9.5A20.14,20.14,0,0,0,19.6,6.92S19,9.39,18.34,9.5Zm2.49.8a2.07,2.07,0,0,1-.53-1.45c.43-3.13,1.85-4,1.85-4C19.91,7.65,20.38,9.61,20.83,10.3Zm13.92-1A10.43,10.43,0,0,0,31,4.58,7.92,7.92,0,0,1,34.75,9.28Z"/><path class="cls-1" d="M9.34,10.08a1.41,1.41,0,0,0,1.51,1.71,21.81,21.81,0,0,1-5.58.08C3,11.46,1.11,10.78.92,8.81s1.49-3.1,2.31-2.57l.1-.11a1.18,1.18,0,0,0-.11.59.48.48,0,0,0,.56.51c.35,0,.85-.51.29-1.17a2.17,2.17,0,0,0-3.59.65,3.23,3.23,0,0,0,.63,4.17,2.9,2.9,0,0,0,.43.3S.73,11,.43,11.54s-.43.68-.21.71a4.51,4.51,0,0,0,2-.48c0,.15-.54.43-.42.66.49.09.61-.41,1.39-.38,1.15.46,4.12.83,8.2-.08.81-.22,1.56-.44,1.73-.47-.26-.05-1.58.22-2.21.14s-1.65-.5-1.17-1.38c.34-.46.6-.28.58-.18.11-.19-.12-.46-.19-.49.13-.05.33.41.31.59s.12.33.24.3a.72.72,0,0,0,0-.91C10.32,9.24,9.59,9.34,9.34,10.08ZM3.68,12a2.56,2.56,0,0,1-1.28-.4A3.71,3.71,0,0,1,.14,8.78a3.16,3.16,0,0,1,1.64-3.1,1.79,1.79,0,0,1,1.48.06,2.23,2.23,0,0,0-1.41.11A2.87,2.87,0,0,0,.36,8.76a3.52,3.52,0,0,0,2,2.68A6.09,6.09,0,0,0,3.68,12Z"/><path class="cls-1" d="M4.34,9.76a.32.32,0,0,0-.17.62A.74.74,0,0,0,5,9.3,1.34,1.34,0,0,0,3.9,8.54,1.51,1.51,0,0,0,2.43,9.7a1.63,1.63,0,0,0,1.17,2,1.19,1.19,0,0,1,.68-.11c-.07,0-.66-.09-.88-.18-1.13-.61-.9-1.61-.78-1.68a1.33,1.33,0,0,0,1.14,1.7,1.27,1.27,0,0,1-1-1.11,1.38,1.38,0,0,1,.91-1.54c-.11,0-.35.05-.76.46a1.06,1.06,0,0,1,1.46-.32c.66.45.49,1.36-.13,1.26-.16-.06-.14-.36,0-.36s.06.12.1.13.16-.07.13-.12A.13.13,0,0,0,4.34,9.76Z"/><path class="cls-1" d="M9.62,11.84c-1.17-.52-.87-1.69-2.11-1.92-.42,0,.14,1.66,1.81,2-.67.14-1.79-.65-2.05-.88-.51-.53-1.39-.76-1.67-.18a6.82,6.82,0,0,0,4.5,1.06A2.76,2.76,0,0,1,9.62,11.84Z"/><path class="cls-1" d="M6.09,12.45c-.51.05-1.1.18-1.13.91,0,.45.62,1.21,1.19.83s.29-.91-.23-.82a2.14,2.14,0,0,0,.18.52c-.2.16-.87-.07-.91-.63S6.09,12.45,6.09,12.45Z"/><path class="cls-1" d="M38.56,6.63A3.07,3.07,0,0,1,36.45,5.3a1.27,1.27,0,0,1,.86,0,1.2,1.2,0,0,0,.81.31c-1-.6-1.83-1.64-1.4-2.35.55.53,1.51.83,2,1.37a2.73,2.73,0,0,1,1,1.66c.13.85.42,1.71.34,1.75s-.31-.63-1.07-.65-.79-.06-1.29-.65c0-.28.86-.06.86-.06Z"/></g></svg>