<svg xmlns="http://www.w3.org/2000/svg" viewBox="0 0 40.07 14.29"><defs><style>.cls-1{fill:#df6427;}</style></defs><title>工作區域 5</title><g id="圖層_2" data-name="圖層 2"><path class="cls-1" d="M21.06,1.82A.61.61,0,0,1,20.74,3,1.4,1.4,0,0,1,20.41.43,2.53,2.53,0,0,1,22.93.26a2.84,2.84,0,0,1,1.29,3.27,3,3,0,0,1-3.81,2.13,2.39,2.39,0,0,0-1-.82,15.72,15.72,0,0,0,1.6.55c2.41.08,3-1.76,2.86-2a2.51,2.51,0,0,1-3.47,1.67,2.42,2.42,0,0,0,2.74-.82,2.61,2.61,0,0,0,0-3.37c.17.11.52.41.8,1.47-.16-.76-.55-2-2.06-1.9s-2.09,1.74-1,2.16c.33,0,.58-.46.32-.6-.08,0-.22.14-.3.11s-.18-.26-.08-.32A.22.22,0,0,1,21.06,1.82Z"/><path class="cls-1" d="M23,7.27s1.19,1,2.23-.65c.33-.63-.55-1.12-.85-1s-.13.72-.6.69-.53-.85.13-1.1a1.23,1.23,0,0,1,1.65,1.18,1.6,1.6,0,0,1-2.41,1.2A1,1,0,0,1,23,7.27Z"/><path class="cls-1" d="M27.59,8.34a2.57,2.57,0,0,0,1-3.13,3.13,3.13,0,0,1-.72,2.27,3.12,3.12,0,0,0,.53-2.62,2.35,2.35,0,0,0-.84-.76,1.17,1.17,0,0,0-1.77.62s1.61.14,1.82,1.14A1.24,1.24,0,0,0,27,4.4c.76.07,1.1,1.45.7,2.16s-.86,2.55-4.42,1.23C22.88,7.64,25.72,9.86,27.59,8.34Z"/><path class="cls-1" d="M6,2.73c.32,2,2.09,1.6,3,1.22a4.77,4.77,0,0,1-4.33.6c-.48-.06-.65.28-.29,1s1.54.7,2.05.69c-.11.14-.28.26-1,.24-.54.45-1.1,2.55-.34,3.26A2.87,2.87,0,0,0,7,8.23,2.13,2.13,0,0,1,7.5,6.78a3.49,3.49,0,0,0,.7,3.72c1.11.91,2.75.28,2.72-.63A1.09,1.09,0,0,0,10,8.74c-.16,0-.28.54-.26.63s0,.18.7.28C9.24,9.82,8.56,9.22,8.17,8a.79.79,0,0,0,1.09.57,5.89,5.89,0,0,0-.85-1.11c-.22-2.05,2.43-3.92,3.71-4-2.45.5-2.88,3.19-2.37,3.91a1.47,1.47,0,0,0,2.17-.08A1.14,1.14,0,0,0,11.65,6c-.22-.19-.17.11-.48.41-.4.05-.76-.42-.46-1.07A2.52,2.52,0,0,1,14,3.9c3.22,1,1.88,5.22.42,5.65s-2.2-.45-2.28-1c.36.58.34.42,1,.84-.14-.33.34-1.63.37-1.88-.2-.29-1,0-1.54.52a2,2,0,0,0-.09,1.74,2.61,2.61,0,0,0,2.5.73,2.34,2.34,0,0,0,1.9-1.59v0a0,0,0,0,0,0,0,2.48,2.48,0,0,1-2.53,1.85,2.79,2.79,0,0,1-1.63-.5,1.94,1.94,0,0,0,1.52.92,3.24,3.24,0,0,0,3.57-2.89c.63-3-1.5-4.52-3.45-5.2,3.46.19,5.07,3.93,5.14,5.15A18,18,0,0,0,19,10.8c.15.17,1-.8,1.14-1.35a6,6,0,0,0-.94-3.37,4.44,4.44,0,0,1,1.5,2.69A3,3,0,0,0,22,10.51c.19,0,.24-.76.17-1.26a2.33,2.33,0,0,0-.51-.94s.17-.14.58.55a2.66,2.66,0,0,0,1.87,1.64c.24-.79-.6-1.34-.6-1.34a3.64,3.64,0,0,1,.63.23c3.71,1.47,8.49-.64,8.08-5s-4-4.86-5.53-4-1.05,3.13,0,3.27,1.6-.92,1.1-1.38a.67.67,0,0,0-1.17.44c-.3-.11-.71-.78.29-1.36,2-.88,3.89,1.29,4.27,2.91a3.87,3.87,0,0,1-4,4.65c-3.51.08-5.49-2.11-7.21-3.63S16.82,2.4,14.05,2.19c2.6-.3,2.74-2,2.64-1.88s-1.24.17-2,.46A4.22,4.22,0,0,0,13,2.05a9.49,9.49,0,0,0-3,1.14c-.81.55-2.37.71-2.81.2S7.84,1.5,8.42,1.8s.38.7.29.78,0-.22-.11-.4c-.09.3-.79.24-.64.44.53.59,1.78-.12,1.23-1.18S5.72.72,6,2.73Zm7.8-.92S15.27,1.26,16,.89A5.56,5.56,0,0,1,13.82,1.81Zm6.65,5.11A20.14,20.14,0,0,0,21.73,9.5C21.05,9.39,20.47,6.92,20.47,6.92ZM17.92,4.84s1.42.88,1.85,4a2,2,0,0,1-.53,1.45C19.69,9.61,20.17,7.65,17.92,4.84ZM9.05,4.58a10.46,10.46,0,0,0-3.73,4.7A7.92,7.92,0,0,1,9.05,4.58Z"/><path class="cls-1" d="M29.45,9.57a.72.72,0,0,0,0,.91c.12,0,.26-.13.24-.3s.19-.64.31-.59c-.07,0-.29.3-.19.49,0-.1.25-.28.58.18.48.88-.53,1.31-1.16,1.38s-1.95-.19-2.22-.14c.17,0,.92.25,1.73.47,4.08.91,7,.54,8.2.08.78,0,.9.47,1.4.38.11-.23-.45-.51-.43-.66a4.51,4.51,0,0,0,2,.48c.22,0,.09-.22-.21-.71s-1.11-.36-1.11-.36a2.9,2.9,0,0,0,.43-.3,3.24,3.24,0,0,0,.64-4.17A2.18,2.18,0,0,0,36,6.06c-.56.66-.06,1.13.29,1.17a.5.5,0,0,0,.57-.51,1.32,1.32,0,0,0-.11-.59l.09.11c.82-.53,2.5.6,2.31,2.57s-2,2.65-4.35,3.06a21.67,21.67,0,0,1-5.57-.08,1.4,1.4,0,0,0,1.5-1.71C30.48,9.34,29.75,9.24,29.45,9.57Zm8.28,1.87a3.54,3.54,0,0,0,2-2.68,2.87,2.87,0,0,0-1.49-2.91,2.23,2.23,0,0,0-1.41-.11,1.79,1.79,0,0,1,1.48-.06,3.16,3.16,0,0,1,1.64,3.1,3.69,3.69,0,0,1-2.26,2.82,2.51,2.51,0,0,1-1.28.4A6.25,6.25,0,0,0,37.73,11.44Z"/><path class="cls-1" d="M35.73,9.76a.32.32,0,0,1,.17.62.74.74,0,0,1-.84-1.08,1.35,1.35,0,0,1,1.11-.76A1.51,1.51,0,0,1,37.64,9.7a1.62,1.62,0,0,1-1.17,2,1.17,1.17,0,0,0-.68-.11c.07,0,.66-.09.88-.18,1.13-.61.9-1.61.79-1.68a1.34,1.34,0,0,1-1.15,1.7,1.28,1.28,0,0,0,1-1.11,1.39,1.39,0,0,0-.92-1.54c.11,0,.35.05.76.46a1,1,0,0,0-1.45-.32c-.67.45-.5,1.36.12,1.26.16-.06.14-.36,0-.36s-.06.12-.1.13-.16-.07-.13-.12A.13.13,0,0,1,35.73,9.76Z"/><path class="cls-1" d="M30.45,11.84c1.18-.52.87-1.69,2.12-1.92.41,0-.14,1.66-1.81,2,.66.14,1.78-.65,2-.88.51-.53,1.39-.76,1.68-.18A6.86,6.86,0,0,1,30,11.89,2.76,2.76,0,0,0,30.45,11.84Z"/><path class="cls-1" d="M34,12.45c.51.05,1.09.18,1.12.91,0,.45-.62,1.21-1.19.83s-.29-.91.23-.82a2.14,2.14,0,0,1-.18.52c.2.16.87-.07.91-.63S34,12.45,34,12.45Z"/><path class="cls-1" d="M1.51,6.63A3,3,0,0,0,3.62,5.3a1.27,1.27,0,0,0-.86,0A1.2,1.2,0,0,1,2,5.56C3,5,3.79,3.92,3.35,3.21c-.55.53-1.5.83-2,1.37a2.78,2.78,0,0,0-1,1.66C.22,7.09-.07,8,0,8s.32-.63,1.07-.65.79-.06,1.29-.65c0-.28-.86-.06-.86-.06Z"/></g></svg>